<svg width="400" height="300" xmlns="http://www.w3.org/2000/svg">
  <rect width="400" height="300" fill="#1a1a2e"/>
  <rect x="50" y="50" width="300" height="200" fill="#16213e" stroke="#0f3460" stroke-width="2" rx="8"/>
  <rect x="80" y="80" width="240" height="25" fill="#2a9d8f" rx="4"/>
  <text x="200" y="97" text-anchor="middle" fill="#f5f5f5" font-family="Arial" font-size="12">Admin Panel</text>
  
  <!-- Calendar Grid -->
  <g stroke="#0f3460" stroke-width="1" fill="none">
    <rect x="90" y="115" width="220" height="90"/>
    <line x1="90" y1="135" x2="310" y2="135"/>
    <line x1="90" y1="155" x2="310" y2="155"/>
    <line x1="90" y1="175" x2="310" y2="175"/>
    <line x1="120" y1="115" x2="120" y2="205"/>
    <line x1="150" y1="115" x2="150" y2="205"/>
    <line x1="180" y1="115" x2="180" y2="205"/>
    <line x1="210" y1="115" x2="210" y2="205"/>
    <line x1="240" y1="115" x2="240" y2="205"/>
    <line x1="270" y1="115" x2="270" y2="205"/>
  </g>
  
  <!-- Appointments -->
  <rect x="125" y="140" width="20" height="10" fill="#e94560" rx="1"/>
  <rect x="185" y="160" width="20" height="10" fill="#f77f00" rx="1"/>
  <rect x="245" y="180" width="20" height="10" fill="#2a9d8f" rx="1"/>
  
  <text x="200" y="225" text-anchor="middle" fill="#8a8a8a" font-family="Arial" font-size="10">Appointment Calendar</text>
</svg>