<svg width="400" height="300" xmlns="http://www.w3.org/2000/svg">
  <rect width="400" height="300" fill="#1a1a2e"/>
  <rect x="50" y="50" width="300" height="200" fill="#16213e" stroke="#0f3460" stroke-width="2" rx="8"/>
  
  <!-- Admin dashboard -->
  <rect x="80" y="80" width="240" height="25" fill="#264653" rx="4"/>
  <text x="200" y="97" text-anchor="middle" fill="#f5f5f5" font-family="Arial" font-size="12">Admin Dashboard</text>
  
  <!-- Statistics -->
  <rect x="90" y="115" width="50" height="30" fill="#e94560" rx="4"/>
  <text x="115" y="128" text-anchor="middle" fill="#f5f5f5" font-family="Arial" font-size="7">Orders</text>
  <text x="115" y="138" text-anchor="middle" fill="#f5f5f5" font-family="Arial" font-size="9">1,247</text>
  
  <rect x="150" y="115" width="50" height="30" fill="#2a9d8f" rx="4"/>
  <text x="175" y="128" text-anchor="middle" fill="#f5f5f5" font-family="Arial" font-size="7">Revenue</text>
  <text x="175" y="138" text-anchor="middle" fill="#f5f5f5" font-family="Arial" font-size="9">$89K</text>
  
  <rect x="210" y="115" width="50" height="30" fill="#f77f00" rx="4"/>
  <text x="235" y="128" text-anchor="middle" fill="#f5f5f5" font-family="Arial" font-size="7">Products</text>
  <text x="235" y="138" text-anchor="middle" fill="#f5f5f5" font-family="Arial" font-size="9">456</text>
  
  <rect x="270" y="115" width="50" height="30" fill="#e76f51" rx="4"/>
  <text x="295" y="128" text-anchor="middle" fill="#f5f5f5" font-family="Arial" font-size="7">Users</text>
  <text x="295" y="138" text-anchor="middle" fill="#f5f5f5" font-family="Arial" font-size="9">2.1K</text>
  
  <!-- Sales chart -->
  <rect x="90" y="160" width="220" height="50" fill="#0f3460" stroke="#264653" stroke-width="1" rx="4"/>
  
  <!-- Bar chart bars -->
  <rect x="110" y="185" width="8" height="20" fill="#2a9d8f"/>
  <rect x="125" y="175" width="8" height="30" fill="#e94560"/>
  <rect x="140" y="190" width="8" height="15" fill="#f77f00"/>
  <rect x="155" y="170" width="8" height="35" fill="#2a9d8f"/>
  <rect x="170" y="180" width="8" height="25" fill="#e94560"/>
  <rect x="185" y="165" width="8" height="40" fill="#f77f00"/>
  <rect x="200" y="175" width="8" height="30" fill="#2a9d8f"/>
  <rect x="215" y="185" width="8" height="20" fill="#e94560"/>
  <rect x="230" y="170" width="8" height="35" fill="#f77f00"/>
  <rect x="245" y="160" width="8" height="45" fill="#2a9d8f"/>
  <rect x="260" y="180" width="8" height="25" fill="#e94560"/>
  <rect x="275" y="175" width="8" height="30" fill="#f77f00"/>
  
  <text x="200" y="225" text-anchor="middle" fill="#8a8a8a" font-family="Arial" font-size="8">Monthly Sales</text>
</svg>