<svg width="400" height="300" xmlns="http://www.w3.org/2000/svg">
  <rect width="400" height="300" fill="#1a1a2e"/>
  <rect x="50" y="50" width="300" height="200" fill="#16213e" stroke="#0f3460" stroke-width="2" rx="8"/>
  
  <!-- Dashboard -->
  <text x="200" y="80" text-anchor="middle" fill="#f5f5f5" font-family="Arial" font-size="12">Admin Dashboard</text>
  
  <!-- Stats cards -->
  <rect x="80" y="90" width="60" height="40" fill="#2a9d8f" rx="4"/>
  <text x="110" y="110" text-anchor="middle" fill="#f5f5f5" font-family="Arial" font-size="8">Students</text>
  <text x="110" y="120" text-anchor="middle" fill="#f5f5f5" font-family="Arial" font-size="10">2,500</text>
  
  <rect x="150" y="90" width="60" height="40" fill="#e94560" rx="4"/>
  <text x="180" y="110" text-anchor="middle" fill="#f5f5f5" font-family="Arial" font-size="8">Faculty</text>
  <text x="180" y="120" text-anchor="middle" fill="#f5f5f5" font-family="Arial" font-size="10">150</text>
  
  <rect x="220" y="90" width="60" height="40" fill="#f77f00" rx="4"/>
  <text x="250" y="110" text-anchor="middle" fill="#f5f5f5" font-family="Arial" font-size="8">Courses</text>
  <text x="250" y="120" text-anchor="middle" fill="#f5f5f5" font-family="Arial" font-size="10">45</text>
  
  <!-- Chart area -->
  <rect x="90" y="150" width="220" height="70" fill="#0f3460" stroke="#264653" stroke-width="1" rx="4"/>
  <path d="M 110 200 L 130 180 L 150 190 L 170 170 L 190 185 L 210 165 L 230 175 L 250 155 L 270 170 L 290 150" stroke="#2a9d8f" stroke-width="2" fill="none"/>
  
  <text x="200" y="235" text-anchor="middle" fill="#8a8a8a" font-family="Arial" font-size="8">Enrollment Analytics</text>
</svg>